<?xml version="1.0" encoding="utf-8"?>
<!-- Generator: Adobe Illustrator 18.0.0, SVG Export Plug-In . SVG Version: 6.00 Build 0)  -->
<!DOCTYPE svg PUBLIC "-//W3C//DTD SVG 1.1//EN" "http://www.w3.org/Graphics/SVG/1.1/DTD/svg11.dtd">
<svg version="1.1" id="Layer_1" xmlns="http://www.w3.org/2000/svg" xmlns:xlink="http://www.w3.org/1999/xlink" x="0px" y="0px"
	 viewBox="0 0 960 560" enable-background="new 0 0 960 560" xml:space="preserve">
<g id="dark" display="none">
	<g id="squiggly" display="inline">
		<g>
			<g>
				<path fill="none" d="M658.5,237.4c-0.2-10.5-2.9-18.5-8.1-23.8c-2.4-2.5-5.6-4.5-9.4-5.9c-3.8-1.4-8.1-2.1-13.1-2.1
					c-8.8,0-14.9,2.5-20.9,7.4v24.5L658.5,237.4z"/>
				<path fill="#333333" d="M664.1,298.6c-8.9,2.6-17.9,3.9-27,3.9c-13.7,0-24-2.9-30.9-8.8c-1.6-1.3-3-2.9-4.2-4.5
					c-0.4,1.6-0.9,3.1-1.4,4.6c-3.4,10.6-8.4,19.9-15,27.9c4.4,2.9,9.2,5.3,14.4,7.1c9.6,3.4,21,5.1,34.1,5.1
					c4.9,0,9.8-0.2,14.8-0.7c5-0.5,10.5-1.2,15.4-2.2c9.5-1.9,18.7-4.7,28.7-8.5v-36.3c-3,3.1-10.6,5.6-15.2,7.6
					C673.2,295.7,668.3,297.3,664.1,298.6z"/>
				<path fill="#333333" d="M694.1,219.4c-3-9.5-7.9-17.7-14.3-24.5c-6.4-6.8-14.1-11.9-22.9-15.1c-8.8-3.2-18.4-4.8-29-4.8
					c-7.6,0-11.9,0.8-20.9,2.4V213c6-4.9,12.1-7.4,20.9-7.4c5,0,9.4,0.7,13.2,2.1c3.8,1.4,6.9,3.4,9.3,5.9c5.1,5.3,8,13.2,8.1,23.8
					l-51.6,0.1V267h92v-15.9C699,239.4,697.1,228.9,694.1,219.4z"/>
			</g>
			<path fill="#333333" d="M596,249.2V128h-39v53.7c0-0.4-2.4-0.7-3.2-1.1c-8.6-3.7-18.8-5.6-29.9-5.6c-7.4,0-14.5,0.9-20.9,2.6
				c2.2,5.2,3.1,12.4,3.1,21.5v14.6c4-1.2,2.8-2.3,4.4-3.3c3.6-2.2,8-3.3,13-3.3c4.6,0,8.8,1,12.6,3c3.8,2,7.1,5.1,9.9,9.5
				c5.4,8.4,8.1,19.9,8.1,34.7c0,14.9-2.7,26.6-8.1,35c-5.4,8.3-12.9,12.4-22.4,12.4c-6.9,0-11.4-2.2-17.4-6.6v15.6
				c0,8.6-1,15.5-2.9,20.7c6.2,1.6,13,2.5,20.5,2.5c11,0,20.8-1.9,29.4-5.7c8.6-3.8,15.9-9,21.8-15.8c6.2-7.1,10.9-15.5,14-25.3
				c3.2-9.7,6-20.6,6-32.7C594.8,252.7,596,250.9,596,249.2z"/>
			<path fill="#333333" d="M353,310.6v-9c-6,0.4-7.4,0.7-10.5,0.7c-13,0-23.6-4.1-30.5-12.2c-6.9-8.2-10.8-19.8-10.8-34.8
				c0-15,3.3-26.7,10.2-35c3.3-4,7.3-7,12.1-9.1c4.8-2.1,12-3.2,18.8-3.2c3.1,0,4.6,0.2,10.6,0.7v-9.5c0-9.3-0.3-16.6,2-21.9
				c-5.9-1.1-12.7-1.6-19-1.6c-23.1,0-41.7,7-54.9,21.1c-13.2,14.2-20,33.8-20,58.6c0,24.8,6.5,44.2,19.6,58.3
				c13.1,14,31.4,21.1,55.1,21.1c4.7,0,8.9-0.3,12.8-0.7c1.8-0.2,5-0.5,6.7-0.8C352.8,327.8,353,320.3,353,310.6z"/>
		</g>
		<g>
			<path fill="#8BC540" d="M510.2,247c-4.2,0-7.6-0.5-10.2-1.3c-2.6-0.8-4.7-2.1-6.1-3.6c-1.5-1.6-1.2-3.7-2-6.5s0.2-6.4,0.2-10.9
				v-18c0-12.3-3.7-20.5-8.3-24.6c-4.6-4.1-15.3-6-29.2-6H444v0.3v15.4v19.7c4,2,4.5,4.7,6.7,8.2c5.4,8.4,7.6,19.9,7.6,34.7
				c0,14.9-1.9,26.6-7.3,35c-2.2,3.4-3,6.1-7,8.2v20.7v14.5v0.4h10.4c13.8,0,24.5-1.5,29.2-5.6c4.6-4.1,8.3-11.8,8.3-24.1v-18
				c0-8.4,0.1-14.7,3.2-17.9c3-3.2,7.1-5.3,15-5.3H521v-15H510.2z"/>
			<path fill="#8BC540" d="M344.5,262c4.2,0,7.6,0.5,10.2,1.4c2.6,0.8,4.7,2.1,6.1,3.7c1.5,1.6,3.9,3.8,4.7,6.5
				c0.8,2.8,2.5,6.4,2.5,11v18c0,12.3,1,20.4,5.7,24.5c4.6,4.1,12.6,5.9,26.6,5.9H414v-0.1v-15.4v-19.7c-1-2-6.1-4.7-8.4-8.2
				c-5.4-8.4-8.4-19.9-8.4-34.7c0-14.9,3.1-26.6,8.5-35c2.2-3.4,7.2-6.1,8.2-8.2V191v-14.5V176h-13.8c-13.8,0-21.8,1.5-26.6,5.7
				c-4.6,4.1-5.7,11.9-5.7,24.2v18c0,8.4-2.8,14.6-5.9,17.8c-3,3.2-9.7,5.3-17.6,5.3H338v15H344.5z"/>
		</g>
	</g>
	
		<text transform="matrix(1 0 0 1 316.3779 400.2153)" display="inline" fill="#333333" font-family="'Montserrat-ExtraBold'" font-size="53.1792" letter-spacing="5">NETWORK</text>
</g>
<g>
	<g id="squiggly_1_">
		<g>
			<g>
				<path fill="none" d="M658.5,237.2c-0.2-10.5-3-18.5-8.1-23.8c-2.4-2.5-5.6-4.5-9.4-5.9c-3.8-1.4-8.1-2.1-13.1-2.1
					c-8.8,0-14.9,2.5-20.9,7.4v24.5L658.5,237.2z"/>
				<path fill="#FFFFFF" d="M664.1,298.4c-8.9,2.6-17.9,3.9-27,3.9c-13.7,0-24-2.9-30.9-8.8c-1.6-1.3-3-2.9-4.2-4.5
					c-0.4,1.6-0.9,3.1-1.4,4.6c-3.4,10.6-8.4,19.9-15,27.9c4.4,2.9,9.2,5.3,14.4,7.1c9.6,3.4,21,5.1,34.1,5.1
					c4.9,0,9.8-0.2,14.8-0.7c5-0.5,10.5-1.2,15.4-2.2c9.5-1.9,19.7-4.7,28.7-8.5V286c-4,3.1-10.6,5.6-15.2,7.6
					C673.2,295.6,668.2,297.2,664.1,298.4z"/>
				<path fill="#FFFFFF" d="M694.1,219.2c-3-9.5-7.9-17.7-14.3-24.5c-6.4-6.8-14.1-11.9-22.9-15.1c-8.8-3.2-18.4-4.8-29-4.8
					c-7.6,0-10.9,0.8-20.9,2.4v35.6c6-4.9,12.1-7.4,20.8-7.4c5,0,9.4,0.7,13.2,2.1c3.8,1.4,6.9,3.4,9.3,5.9c5.1,5.3,8,13.2,8.2,23.8
					l-51.5,0.1V270h92v-19.1C699,239.3,697.1,228.7,694.1,219.2z"/>
			</g>
			<path fill="#FFFFFF" d="M596,249.1V127h-40v54.5c0-0.4-2-0.7-2.7-1.1c-8.6-3.7-18.6-5.6-29.7-5.6c-7.4,0-14.4,0.9-20.8,2.6
				c2.2,5.2,3.2,12.4,3.2,21.5v14.6c4-1.2,2.8-2.3,4.3-3.3c3.6-2.2,8-3.3,13-3.3c4.6,0,8.8,1,12.6,3c3.8,2,7.1,5.1,9.9,9.5
				c5.4,8.4,8.1,19.9,8.1,34.7c0,14.9-2.7,26.6-8.1,35c-5.4,8.3-12.9,12.4-22.4,12.4c-6.9,0-12.4-2.2-17.4-6.6v15.6
				c0,8.6-1,15.5-3,20.7c6.2,1.6,13,2.5,20.5,2.5c11,0,20.8-1.9,29.4-5.7c8.6-3.8,15.9-9,21.8-15.8c6.2-7.1,10.9-15.5,14-25.3
				c3.2-9.7,6.1-20.6,6.1-32.7C594.8,252.5,596,250.8,596,249.1z"/>
			<path fill="#FFFFFF" d="M353,310.5v-9c-6,0.4-7.4,0.7-10.5,0.7c-13,0-23.6-4.1-30.5-12.2c-6.9-8.2-10.8-19.8-10.8-34.8
				c0-15,3.3-26.7,10.2-35c3.3-4,7.3-7,12.1-9.1c4.8-2.1,12.1-3.2,18.8-3.2c3.1,0,4.6,0.2,10.6,0.7V199c0-9.3-0.4-16.6,1.9-21.9
				c-5.9-1.1-12.7-1.6-19-1.6c-23.1,0-41.7,7-54.9,21.1c-13.2,14.2-20,33.8-20,58.6c0,24.8,6.5,44.2,19.6,58.3
				c13.1,14,31.4,21.1,55.1,21.1c4.7,0,8.9-0.3,12.8-0.7c1.8-0.2,5-0.5,6.8-0.8C352.7,327.6,353,320.1,353,310.5z"/>
		</g>
		<g>
			<path fill="#8BC540" d="M510.1,248c-4.2,0-7.6-1-10.2-1.9c-2.6-0.8-4.7-2.4-6.1-3.9c-1.5-1.6-1.7-3.9-2.5-6.7
				c-0.8-2.8-0.3-6.6-0.3-11.1v-18c0-12.3-3.2-20.9-7.9-25c-4.6-4.1-14.8-6.4-28.8-6.4H444v1.1v15.4v19.7c4,2,4.4,4.7,6.7,8.2
				c5.4,8.4,7.6,19.9,7.6,34.7c0,14.9-1.9,26.6-7.3,35c-2.2,3.4-3,6.1-7,8.2V318v14.5v1.6h10.4c13.8,0,24-2.1,28.8-6.2
				c4.6-4.1,7.9-12.4,7.9-24.7v-18c0-8.4,0.6-14.1,3.7-17.3c3-3.2,7.5-4.7,15.4-4.7h9.9v-15H510.1z"/>
			<path fill="#8BC540" d="M344.4,263c4.2,0,7.6-0.1,10.2,0.8c2.6,0.8,4.7,1.8,6.1,3.4c1.5,1.6,3.4,3.6,4.2,6.4s2,6.3,2,10.8v18
				c0,12.3,1.5,21,6.2,25.1c4.6,4.1,13.1,6.5,27,6.5H415v-1.3v-15.4v-19.7c-3-2-6.6-4.7-8.9-8.2c-5.4-8.4-8.7-19.9-8.7-34.7
				c0-14.9,3.5-26.6,8.9-35c2.2-3.4,5.6-6.1,8.6-8.2v-20.7v-14.5V175h-14.8c-13.8,0-22.3,2-27,6.1c-4.6,4.1-6.2,12.3-6.2,24.6v18
				c0,8.4-2.3,15.2-5.4,18.4c-3,3.2-9.3,5.9-17.1,5.9H338v15H344.4z"/>
		</g>
	</g>
	<g>
		<path fill="#FFFFFF" d="M345.4,400.2l-15.8-20.7v20.7h-10.2V363h9.5l15.8,20.8V363h10.1v37.3H345.4z"/>
		<path fill="#FFFFFF" d="M377.5,371.5v5.8h17.6v8.5h-17.6v5.9h19.9v8.5h-31V363h30.5v8.5H377.5z"/>
		<path fill="#FFFFFF" d="M427.1,371.8v28.4H416v-28.4h-10.8V363H438v8.8H427.1z"/>
		<path fill="#FFFFFF" d="M479,400.2l-6-23.8l-6.1,23.8h-11.4L443.5,363h11.8l6.4,25.8l6.2-25.7l10.8-0.1l6.4,25.8l6.2-25.8h11.3
			l-12.2,37.3H479z"/>
		<path fill="#FFFFFF" d="M549.2,381.6c0,11-8.6,19.1-20.3,19.1c-11.7,0-20.3-8.1-20.3-19.1c0-11,8.6-18.9,20.3-18.9
			C540.6,362.6,549.2,370.7,549.2,381.6z M519.9,381.6c0,5.6,4.3,9.8,9.1,9.8s8.8-4.2,8.8-9.8s-3.9-9.7-8.8-9.7
			C524.1,371.9,519.9,376,519.9,381.6z"/>
		<path fill="#FFFFFF" d="M575.6,390.2h-5.8v10.1h-11.1V363H576c10,0,15.7,4.8,15.7,13.2c0,5.5-2.2,9.6-6.3,11.9l7.6,12.2h-12.5
			L575.6,390.2z M576,381.7c3.3,0,5.2-1.8,5.2-5.2c0-3.2-1.9-5.1-5.2-5.1h-6.3v10.2H576z"/>
		<path fill="#FFFFFF" d="M617.8,386.6l-4.2,4.7v8.9h-11.1V363h11.1v14.4l12.5-14.4h12.8l-13.5,15.2l14.4,22.1h-13.2L617.8,386.6z"
			/>
	</g>
</g>
</svg>
